# Blender 3.5.1
# www.blender.org
mtllib left_leg.mtl
o left_leg
v 0.544933 4.195866 -0.558819
v 0.920527 4.184043 -0.044851
v 0.477671 4.172223 0.455362
v 0.036340 4.179833 -0.000000
v 0.536754 3.415046 -0.502371
v 0.894827 3.397165 -0.084057
v 0.537690 3.357712 0.318806
v 0.223573 3.371192 -0.048713
v 0.877697 2.599029 -0.140507
v 0.620740 2.616552 -0.428345
v 0.626233 2.547477 0.134796
v 0.369555 2.560646 -0.118195
v 0.797346 1.515419 -0.063571
v 1.111030 1.545950 -0.369864
v 0.522988 1.514169 -0.342359
v 0.798413 1.547562 -0.687277
v 0.761700 0.461145 -0.204347
v 0.945803 0.418148 -0.367756
v 0.601164 0.416036 -0.355825
v 0.797319 0.395844 -0.525869
v 0.639386 0.281260 0.081918
v 0.916879 0.280770 0.081918
v 0.700745 0.093718 0.528786
v 0.933641 0.093159 0.528786
v 0.700745 0.001932 0.576261
v 0.933641 0.001373 0.576261
v 0.585603 -0.001234 0.053504
v 1.042347 -0.001792 0.053954
v 0.700745 0.014591 -0.523363
v 0.934520 0.014031 -0.523363
v 0.710684 0.223629 -0.555446
v 0.892479 0.223139 -0.555446
v 0.979455 0.246482 -0.293875
v 0.598129 0.239454 -0.293875
v 0.585603 0.006679 -0.245471
v 1.055832 0.006120 -0.245471
v 0.687271 2.216591 -0.010072
v 0.652483 2.472112 -0.476712
v 0.896768 2.357002 -0.232035
v 0.438109 2.315829 -0.225896
v 0.544933 4.195866 -0.558819
v 0.920527 4.184043 -0.044851
v 0.477671 4.172223 0.455362
v 0.036340 4.179833 -0.000000
v 0.536754 3.415046 -0.502371
v 0.894827 3.397165 -0.084057
v 0.537690 3.357712 0.318806
v 0.223573 3.371192 -0.048713
v 0.877697 2.599029 -0.140507
v 0.620740 2.616552 -0.428345
v 0.626233 2.547477 0.134796
v 0.369555 2.560646 -0.118195
v 0.797346 1.515419 -0.063571
v 1.111030 1.545950 -0.369864
v 0.522988 1.514169 -0.342359
v 0.798413 1.547562 -0.687277
v 0.761700 0.461145 -0.204347
v 0.945803 0.418148 -0.367756
v 0.601164 0.416036 -0.355825
v 0.797319 0.395844 -0.525869
v 0.639386 0.281260 0.081918
v 0.916879 0.280770 0.081918
v 0.700745 0.093718 0.528786
v 0.933641 0.093159 0.528786
v 0.700745 0.001932 0.576261
v 0.933641 0.001373 0.576261
v 0.585603 -0.001234 0.053504
v 1.042347 -0.001792 0.053954
v 0.700745 0.014591 -0.523363
v 0.934520 0.014031 -0.523363
v 0.710684 0.223629 -0.555446
v 0.892479 0.223139 -0.555446
v 0.979455 0.246482 -0.293875
v 0.598129 0.239454 -0.293875
v 0.585603 0.006679 -0.245471
v 1.055832 0.006120 -0.245471
v 0.687271 2.216591 -0.010072
v 0.652483 2.472112 -0.476712
v 0.896768 2.357002 -0.232035
v 0.438109 2.315829 -0.225896
vn 0.7465 -0.0704 0.6617
vn 0.7470 -0.0657 0.6616
vn -0.7749 0.0161 -0.6319
vn 0.5828 0.5346 0.6120
vn 0.7852 -0.0238 -0.6187
vn 0.8683 -0.0551 0.4929
vn -0.7535 0.1939 0.6282
vn -0.7707 -0.0899 -0.6309
vn -0.8393 -0.1481 0.5232
vn 0.3881 0.1022 -0.9159
vn -0.7262 -0.1862 0.6618
vn -0.7261 -0.1862 0.6619
vn -0.4107 0.0309 -0.9113
vn 0.7514 -0.0592 0.6572
vn 0.7458 -0.0561 0.6638
vn -0.7917 -0.1148 -0.6000
vn -0.7243 -0.2076 0.6574
vn -0.7244 -0.2076 0.6574
vn 0.7545 0.0244 -0.6559
vn 0.7544 0.0245 -0.6560
vn 0.7107 0.2773 -0.6466
vn 0.7107 0.2773 -0.6465
vn -0.6934 -0.1692 0.7004
vn 0.6994 0.0599 0.7122
vn 0.6995 0.0599 0.7121
vn 0.7164 -0.1018 -0.6902
vn -0.7348 -0.0695 -0.6747
vn -0.6983 -0.0649 0.7128
vn 0.6808 -0.1087 0.7244
vn 0.0015 0.8464 0.5325
vn 0.0018 0.9221 0.3869
vn 0.0020 0.9221 0.3870
vn 0.0022 0.9221 0.3870
vn 0.0011 0.4594 0.8882
vn -0.0019 -1.0000 0.0059
vn -0.0015 -1.0000 0.0061
vn -0.0016 -1.0000 0.0061
vn -0.0022 -0.9996 -0.0295
vn -0.0016 -0.9996 -0.0285
vn -0.0015 -0.9996 -0.0288
vn -0.0004 -0.1517 -0.9884
vn 0.0005 0.1690 -0.9856
vn 0.8331 0.2480 -0.4944
vn 0.7298 0.6393 0.2423
vn 0.7298 0.6393 0.2422
vn -0.7980 0.1510 -0.5834
vn -0.8252 0.5156 0.2308
vn -0.8251 0.5156 0.2308
vn 0.9351 0.3212 0.1498
vn -0.0012 -0.9996 -0.0265
vn -0.0004 -0.9996 -0.0273
vn -0.0019 -0.9996 -0.0267
vn 0.9164 0.1772 -0.3589
vn 0.9164 0.1771 -0.3589
vn 0.9279 0.3617 0.0904
vn 0.9278 0.3618 0.0905
vn -0.9212 -0.0240 -0.3884
vn -0.9211 -0.0239 -0.3885
vn -0.9212 -0.0239 -0.3884
vn -0.9901 0.1295 0.0540
vn -0.9674 0.1494 0.2045
vn -0.9674 0.1495 0.2045
vn -0.6656 -0.4200 0.6169
vn -0.6652 -0.4204 0.6170
vn -0.6653 -0.4204 0.6170
vn 0.7289 0.3157 -0.6075
vn -0.7779 0.0507 -0.6264
vn -0.7778 0.0507 -0.6264
vn 0.7538 -0.1578 0.6379
vn -0.0000 -0.0000 1.0000
vn -0.0741 0.8299 -0.5530
vn -0.0000 0.9717 0.2364
vn -1.0000 0.0024 -0.0000
vn -0.0000 0.9717 -0.2364
vn 0.7792 0.0214 -0.6264
vn -1.0000 0.0013 0.0005
vn -0.7755 0.0226 0.6309
vn -1.0000 0.0012 -0.0000
vn 0.8298 0.0570 -0.5552
vn -0.8351 0.0545 0.5474
vn 0.0474 0.9960 -0.0760
vn -1.0000 0.0027 -0.0000
vn -0.1965 0.9777 0.0746
vn 0.4481 0.8907 0.0760
vn -0.4812 0.8734 -0.0744
vn -0.1885 0.9618 0.1985
vn 0.7863 0.2110 -0.5807
vn -0.6755 0.3702 -0.6378
vn -0.8281 0.1164 0.5484
vn 0.0169 0.9857 -0.1679
vn 0.5337 0.5408 0.6502
vn -0.4054 0.9130 0.0451
vn -0.0000 0.7164 -0.6977
vn 0.6256 0.3670 0.6884
vn -0.3014 0.9488 0.0947
vn 0.0535 0.9933 -0.1022
vn 0.1868 0.9812 0.0492
vn -0.2642 0.9437 -0.1990
vn -0.1777 0.9632 0.2019
vn -0.0772 0.9808 -0.1793
vn -0.2120 0.9645 0.1574
vn -0.0016 0.4569 0.8895
vn -0.6740 0.4502 0.5857
vn -0.0018 0.4892 0.8722
vn -0.0016 0.4261 0.9047
vn 0.6505 -0.6459 0.3996
vn 0.9071 0.1002 0.4089
vn -0.1079 0.9880 -0.1108
vn 0.8984 0.1842 -0.3988
vn 0.0214 0.9991 0.0353
vn 0.7508 0.5474 -0.3697
vn -0.1549 0.9817 -0.1104
vn 0.8953 0.1085 0.4320
vn -0.1050 0.9919 0.0717
vn 0.0327 0.9992 -0.0249
vn -0.9074 0.0453 -0.4179
vn 0.0105 0.9993 -0.0361
vn 0.0014 -0.3957 -0.9184
vn 0.8780 0.1229 0.4627
vn -0.2255 0.9738 0.0293
vn -0.9075 0.0390 0.4183
vn -0.0732 0.9939 0.0827
vn -0.1044 0.9935 0.0460
vn 0.8835 0.1966 0.4251
vn -0.1771 0.9833 0.0421
vn -0.9242 0.0475 0.3790
vn -0.9108 0.0621 -0.4082
vn -0.8440 0.3977 0.3598
vn -0.2545 0.9636 -0.0813
vn -0.9224 0.0048 -0.3862
vn -0.8762 0.3490 -0.3324
vn 0.9223 0.0042 0.3864
vn -0.1550 0.9872 0.0376
vn 0.7772 0.5209 0.3531
vn 0.9222 0.0898 -0.3761
vn 0.1450 0.9894 0.0009
vn 0.9087 0.1364 -0.3946
vn 0.0009 0.9976 -0.0696
vn -0.9324 0.0960 0.3483
vn -0.0710 0.9975 0.0061
vn 0.8980 0.2523 0.3604
vn 0.0337 0.9972 0.0663
vn -0.9126 0.2132 -0.3489
vn -1.0000 0.0018 -0.0000
vn -0.5904 0.6863 -0.4247
vn 0.5037 0.7408 0.4444
vn -0.2605 0.7963 0.5459
vn 0.7453 -0.0700 0.6630
vn -0.7748 0.0161 -0.6320
vn 0.7164 -0.1018 -0.6903
vn 0.0016 0.9222 0.3868
vn -0.0012 -1.0000 0.0063
vn -0.0741 0.8299 0.5530
vn 0.7792 0.0214 0.6264
vn -1.0000 0.0012 -0.0005
vn -0.7755 0.0226 -0.6309
vn 0.8298 0.0570 0.5552
vn -0.8351 0.0545 -0.5474
vn 0.0474 0.9960 0.0760
vn -0.1966 0.9777 -0.0746
vn 0.4481 0.8907 -0.0760
vn -0.4813 0.8734 0.0744
vn -0.1885 0.9618 -0.1985
vn 0.7863 0.2110 0.5807
vn -0.6755 0.3701 0.6378
vn -0.8281 0.1165 -0.5484
vn 0.0170 0.9857 0.1679
vn 0.5337 0.5407 -0.6502
vn -0.4054 0.9130 -0.0451
vn -0.0000 0.7164 0.6977
vn 0.6256 0.3670 -0.6884
vn -0.3015 0.9488 -0.0947
vn 0.0535 0.9933 0.1022
vn 0.1868 0.9812 -0.0492
vn -0.2643 0.9437 0.1990
vn -0.1776 0.9632 -0.2019
vn -0.0773 0.9808 0.1793
vn -0.2119 0.9645 -0.1574
vn 0.9071 0.1002 -0.4089
vn -0.1080 0.9880 0.1108
vn 0.8984 0.1841 0.3988
vn 0.0215 0.9991 -0.0353
vn 0.7508 0.5473 0.3697
vn -0.1550 0.9817 0.1104
vn 0.8953 0.1086 -0.4320
vn -0.1050 0.9919 -0.0717
vn 0.0326 0.9992 0.0249
vn -0.9074 0.0454 0.4179
vn 0.0105 0.9993 0.0361
vn 0.8780 0.1229 -0.4627
vn -0.2254 0.9738 -0.0293
vn -0.9075 0.0389 -0.4183
vn -0.0732 0.9939 -0.0827
vn -0.1045 0.9935 -0.0460
vn 0.8835 0.1966 -0.4251
vn -0.1770 0.9833 -0.0421
vn -0.9242 0.0474 -0.3790
vn -0.9108 0.0622 0.4082
vn -0.8440 0.3977 -0.3598
vn -0.2546 0.9636 0.0813
vn -0.9224 0.0048 0.3862
vn -0.8762 0.3490 0.3324
vn 0.9223 0.0042 -0.3864
vn -0.1549 0.9872 -0.0376
vn 0.7772 0.5209 -0.3531
vn 0.9222 0.0897 0.3761
vn 0.1450 0.9894 -0.0009
vn 0.9087 0.1365 0.3946
vn 0.0010 0.9976 0.0696
vn -0.9324 0.0960 -0.3483
vn -0.0710 0.9975 -0.0061
vn 0.8980 0.2523 -0.3604
vn 0.0338 0.9972 -0.0663
vn -0.9126 0.2131 0.3489
vn -0.5904 0.6863 0.4247
vn 0.5037 0.7408 -0.4444
vn -0.2605 0.7963 -0.5459
vt 0.000000 0.000000
vt 0.666667 0.500000
vt 0.500000 0.500000
vt 0.333333 0.500000
vt 0.000000 0.000000
vt 0.000000 0.000000
vt 0.000000 0.000000
vt 0.666667 0.500000
vt 0.500000 0.500000
vt 0.333333 0.500000
vt 0.000000 0.000000
vt 0.000000 0.000000
vt 0.500000 0.500000
vt 0.000000 0.000000
vt 0.666667 0.500000
vt 0.333333 0.500000
vt 0.000000 0.000000
vt 0.000000 0.000000
vt 0.333333 0.500000
vt 0.000000 0.000000
vt 0.500000 0.500000
vt 0.000000 0.000000
vt 0.000000 0.000000
vt 0.666667 0.500000
vt 0.333333 0.500000
vt 0.000000 0.000000
vt 0.500000 0.500000
vt 0.000000 0.000000
vt 0.000000 0.000000
vt 0.666667 0.500000
vt 0.000000 0.000000
vt 0.000000 0.000000
vt 0.000000 0.000000
vt 0.000000 0.000000
vt 0.000000 0.000000
vt 0.000000 0.000000
vt 0.000000 0.000000
vt 0.000000 0.000000
vt 0.000000 0.000000
vt 0.000000 0.000000
vt 0.000000 0.000000
vt 0.000000 0.000000
vt 0.000000 0.000000
vt 0.000000 0.000000
vt 0.000000 0.000000
vt 0.000000 0.000000
vt 0.000000 0.000000
vt 0.333333 0.500000
vt 0.666667 0.500000
vt 0.000000 0.000000
vt 0.500000 0.500000
vt 0.000000 0.000000
vt 0.666667 0.500000
vt 0.000000 0.000000
vt 0.500000 0.500000
vt 0.333333 0.500000
vt 0.000000 0.000000
vt 0.000000 0.000000
vt 0.666667 0.500000
vt 0.000000 0.000000
vt 0.500000 0.500000
vt 0.333333 0.500000
vt 0.000000 0.000000
vt 0.000000 0.000000
vt 0.500000 0.500000
vt 0.000000 0.000000
vt 0.666667 0.500000
vt 0.333333 0.500000
vt 0.000000 0.000000
vt 0.000000 0.000000
vt 0.333333 0.500000
vt 0.000000 0.000000
vt 0.500000 0.500000
vt 0.000000 0.000000
vt 0.000000 0.000000
vt 0.666667 0.500000
vt 0.333333 0.500000
vt 0.000000 0.000000
vt 0.500000 0.500000
vt 0.000000 0.000000
vt 0.666667 0.500000
vt 0.000000 0.000000
vt 0.000000 0.000000
vt 0.000000 0.000000
vt 0.000000 0.000000
vt 0.000000 0.000000
vt 0.000000 0.000000
vt 0.000000 0.000000
vt 0.000000 0.000000
vt 0.000000 0.000000
vt 0.000000 0.000000
vt 0.000000 0.000000
vt 0.000000 0.000000
vt 0.000000 0.000000
vt 0.000000 0.000000
vt 0.000000 0.000000
vt 0.000000 0.000000
vt 0.000000 0.000000
vt 0.000000 0.000000
vt 0.333333 0.500000
vt 0.000000 0.000000
vt 0.666667 0.500000
vt 0.500000 0.500000
vt 0.000000 0.000000
s 1
usemtl Skin.002
f 6/9/1 11/16/2 9/13/2
f 40/52/3 16/23/3 15/22/3
f 2/3/4 5/8/5 1/2/6
f 1/1/7 8/12/8 4/6/9
f 3/5/10 8/12/11 7/11/12
f 2/3/13 7/10/14 6/9/15
f 8/12/16 10/14/16 12/18/16
f 7/11/17 12/18/18 11/17/17
f 6/9/19 10/15/20 5/8/19
f 39/51/21 16/24/21 38/49/22
f 37/47/23 15/22/23 13/20/23
f 39/51/24 13/19/25 14/21/25
f 16/24/26 18/27/26 20/30/26
f 15/22/27 20/29/27 19/28/27
f 15/22/28 17/26/28 13/20/28
f 13/19/29 18/27/29 14/21/29
f 21/31/30 22/32/30 17/26/30
f 22/32/31 23/33/32 24/34/33
f 24/34/34 25/35/34 26/36/34
f 25/35/35 28/38/36 26/36/37
f 35/45/38 30/40/39 36/46/40
f 29/39/41 32/42/41 30/40/41
f 31/41/42 20/29/42 32/42/42
f 18/27/43 32/42/43 20/29/43
f 17/26/44 33/43/45 18/27/45
f 19/28/46 31/41/46 34/44/46
f 34/44/47 17/26/48 19/28/48
f 24/34/49 28/38/49 22/32/49
f 28/38/50 35/45/51 36/46/52
f 30/40/53 33/43/54 36/46/53
f 33/43/55 28/38/56 36/46/55
f 34/44/57 29/39/58 35/45/59
f 34/44/60 27/37/60 21/31/60
f 27/37/61 23/33/62 21/31/61
f 11/17/63 40/52/64 37/47/65
f 9/13/66 38/49/66 10/15/66
f 10/14/67 40/52/68 12/18/67
f 9/13/69 37/48/69 39/51/69
f 22/32/70 64/86/70 24/34/71
f 25/35/70 63/85/70 23/33/72
f 26/36/70 65/87/70 25/35/73
f 24/34/70 66/88/70 26/36/74
f 27/37/70 65/87/70 25/35/75
f 28/38/70 67/89/70 27/37/76
f 26/36/70 68/90/70 28/38/77
f 35/45/70 76/98/70 36/46/78
f 29/39/70 75/97/70 35/45/79
f 30/40/70 69/91/70 29/39/73
f 36/46/70 70/92/70 30/40/80
f 31/41/70 69/91/70 29/39/81
f 32/42/70 71/93/70 31/41/82
f 30/40/70 72/94/70 32/42/83
f 20/29/70 71/93/70 31/41/84
f 32/42/70 60/82/70 20/29/85
f 33/43/70 58/79/70 18/27/86
f 32/42/70 73/95/70 33/43/87
f 33/43/70 62/84/70 22/32/88
f 34/44/70 71/93/70 31/41/89
f 19/28/70 74/96/70 34/44/90
f 21/31/70 74/96/70 34/44/91
f 22/32/70 68/90/70 28/38/92
f 35/45/70 67/89/70 27/37/93
f 28/38/70 76/98/70 36/46/94
f 36/46/70 73/95/70 33/43/95
f 34/44/70 75/97/70 35/45/96
f 21/31/70 67/89/70 27/37/97
f 40/52/70 52/70/70 12/18/98
f 11/17/70 77/99/70 37/47/99
f 39/51/70 49/65/70 9/13/100
f 10/15/70 78/102/70 38/49/101
f 3/5/10 44/58/102 4/6/103
f 1/2/6 42/55/104 2/3/4
f 2/3/13 43/56/105 3/4/106
f 7/10/70 46/61/70 6/9/107
f 11/16/70 47/62/70 7/10/108
f 9/13/70 51/68/70 11/16/109
f 6/9/70 49/65/70 9/13/110
f 38/50/70 80/104/70 40/52/111
f 16/23/70 78/101/70 38/50/112
f 15/22/70 56/75/70 16/23/113
f 40/52/70 55/74/70 15/22/114
f 6/9/70 42/55/70 2/3/115
f 5/8/70 46/61/70 6/9/116
f 1/2/70 45/59/70 5/8/117
f 4/6/9 41/54/118 1/1/7
f 8/12/70 45/60/70 5/7/119
f 4/6/70 48/64/70 8/12/120
f 7/11/70 48/64/70 8/12/121
f 3/5/70 47/63/70 7/11/122
f 10/14/70 45/60/70 5/7/123
f 12/18/70 50/66/70 10/14/124
f 8/12/70 52/70/70 12/18/125
f 11/17/70 52/70/70 12/18/126
f 10/15/70 49/65/70 9/13/127
f 39/51/70 78/102/70 38/49/128
f 14/21/70 79/103/70 39/51/129
f 16/24/70 54/73/70 14/21/130
f 40/52/70 77/99/70 37/47/131
f 13/20/70 55/74/70 15/22/132
f 37/47/70 53/72/70 13/20/133
f 37/48/70 79/103/70 39/51/134
f 14/21/70 53/71/70 13/19/135
f 18/27/70 54/73/70 14/21/136
f 20/30/70 58/79/70 18/27/137
f 16/24/70 60/81/70 20/30/138
f 19/28/70 60/82/70 20/29/139
f 15/22/70 59/80/70 19/28/140
f 17/26/70 59/80/70 19/28/141
f 13/20/70 57/78/70 17/26/142
f 18/27/70 57/77/70 17/25/143
f 22/32/70 61/83/70 21/31/144
f 17/26/70 62/84/70 22/32/145
f 21/31/70 57/78/70 17/26/146
f 23/33/70 61/83/70 21/31/147
f 24/34/70 63/85/70 23/33/73
f 6/9/1 7/10/148 11/16/2
f 40/52/3 38/50/149 16/23/3
f 2/3/4 6/9/5 5/8/5
f 1/1/7 5/7/8 8/12/8
f 3/5/10 4/6/103 8/12/11
f 2/3/13 3/4/106 7/10/14
f 8/12/16 5/7/16 10/14/16
f 7/11/17 8/12/18 12/18/18
f 6/9/19 9/13/19 10/15/20
f 39/51/21 14/21/22 16/24/21
f 37/47/23 40/52/23 15/22/23
f 39/51/24 37/48/25 13/19/25
f 16/24/26 14/21/150 18/27/26
f 15/22/27 16/23/27 20/29/27
f 15/22/28 19/28/28 17/26/28
f 13/19/29 17/25/29 18/27/29
f 22/32/31 21/31/151 23/33/32
f 24/34/34 23/33/34 25/35/34
f 25/35/35 27/37/152 28/38/36
f 35/45/38 29/39/39 30/40/39
f 29/39/41 31/41/41 32/42/41
f 18/27/43 33/43/43 32/42/43
f 17/26/44 22/32/44 33/43/45
f 19/28/46 20/29/46 31/41/46
f 34/44/47 21/31/48 17/26/48
f 24/34/49 26/36/49 28/38/49
f 28/38/50 27/37/50 35/45/51
f 30/40/53 32/42/53 33/43/54
f 33/43/55 22/32/55 28/38/56
f 34/44/57 31/41/59 29/39/58
f 34/44/60 35/45/60 27/37/60
f 27/37/61 25/35/61 23/33/62
f 11/17/63 12/18/64 40/52/64
f 9/13/66 39/51/66 38/49/66
f 10/14/67 38/50/67 40/52/68
f 9/13/69 11/16/69 37/48/69
f 22/32/70 62/84/153 64/86/70
f 25/35/70 65/87/74 63/85/70
f 26/36/70 66/88/73 65/87/70
f 24/34/70 64/86/72 66/88/70
f 27/37/70 67/89/154 65/87/70
f 28/38/70 68/90/155 67/89/70
f 26/36/70 66/88/156 68/90/70
f 35/45/70 75/97/78 76/98/70
f 29/39/70 69/91/157 75/97/70
f 30/40/70 70/92/73 69/91/70
f 36/46/70 76/98/158 70/92/70
f 31/41/70 71/93/159 69/91/70
f 32/42/70 72/94/82 71/93/70
f 30/40/70 70/92/160 72/94/70
f 20/29/70 60/82/161 71/93/70
f 32/42/70 72/94/162 60/82/70
f 33/43/70 73/95/163 58/79/70
f 32/42/70 72/94/164 73/95/70
f 33/43/70 73/95/165 62/84/70
f 34/44/70 74/96/166 71/93/70
f 19/28/70 59/80/167 74/96/70
f 21/31/70 61/83/168 74/96/70
f 22/32/70 62/84/169 68/90/70
f 35/45/70 75/97/170 67/89/70
f 28/38/70 68/90/171 76/98/70
f 36/46/70 76/98/172 73/95/70
f 34/44/70 74/96/173 75/97/70
f 21/31/70 61/83/174 67/89/70
f 40/52/70 80/104/175 52/70/70
f 11/17/70 51/69/176 77/99/70
f 39/51/70 79/103/177 49/65/70
f 10/15/70 50/67/178 78/102/70
f 3/5/10 43/57/105 44/58/102
f 1/2/6 41/53/118 42/55/104
f 2/3/13 42/55/104 43/56/105
f 7/10/70 47/62/179 46/61/70
f 11/16/70 51/68/180 47/62/70
f 9/13/70 49/65/181 51/68/70
f 6/9/70 46/61/182 49/65/70
f 38/50/70 78/101/183 80/104/70
f 16/23/70 56/75/184 78/101/70
f 15/22/70 55/74/185 56/75/70
f 40/52/70 80/104/186 55/74/70
f 6/9/70 46/61/187 42/55/70
f 5/8/70 45/59/188 46/61/70
f 1/2/70 41/53/189 45/59/70
f 4/6/9 44/58/102 41/54/118
f 8/12/70 48/64/190 45/60/70
f 4/6/70 44/58/191 48/64/70
f 7/11/70 47/63/192 48/64/70
f 3/5/70 43/57/193 47/63/70
f 10/14/70 50/66/194 45/60/70
f 12/18/70 52/70/195 50/66/70
f 8/12/70 48/64/196 52/70/70
f 11/17/70 51/69/197 52/70/70
f 10/15/70 50/67/198 49/65/70
f 39/51/70 79/103/199 78/102/70
f 14/21/70 54/73/200 79/103/70
f 16/24/70 56/76/201 54/73/70
f 40/52/70 80/104/202 77/99/70
f 13/20/70 53/72/203 55/74/70
f 37/47/70 77/99/204 53/72/70
f 37/48/70 77/100/205 79/103/70
f 14/21/70 54/73/206 53/71/70
f 18/27/70 58/79/207 54/73/70
f 20/30/70 60/81/208 58/79/70
f 16/24/70 56/76/209 60/81/70
f 19/28/70 59/80/210 60/82/70
f 15/22/70 55/74/211 59/80/70
f 17/26/70 57/78/212 59/80/70
f 13/20/70 53/72/213 57/78/70
f 18/27/70 58/79/214 57/77/70
f 22/32/70 62/84/144 61/83/70
f 17/26/70 57/78/215 62/84/70
f 21/31/70 61/83/216 57/78/70
f 23/33/70 63/85/217 61/83/70
f 24/34/70 64/86/73 63/85/70
f 44/58/102 42/55/104 41/54/118
f 44/58/102 43/57/105 42/55/104
