# Blender 3.5.1
# www.blender.org
mtllib right_hand.mtl
o right_hand
v -0.939931 6.729466 -0.168691
v -1.175070 7.311525 -0.181354
v -1.057883 7.033898 -0.521418
v -1.057883 7.018074 0.119147
v -1.244108 6.012969 -0.188280
v -1.592599 6.187012 -0.196826
v -1.426756 6.106024 -0.426336
v -1.420386 6.098719 0.005983
v -1.339961 5.806897 -0.140730
v -1.707648 5.991489 -0.166636
v -1.529780 5.876113 -0.403669
v -1.522948 5.922901 0.058242
v -1.865146 4.734756 0.239612
v -2.115488 4.813931 0.205442
v -1.992030 4.725632 0.044879
v -1.991914 4.817854 0.372713
v -1.897348 4.633152 0.244152
v -2.144772 4.675267 0.234140
v -2.016881 4.625896 0.070350
v -2.018525 4.674604 0.390915
v -1.912428 4.497373 0.270977
v -2.194047 4.499444 0.270519
v -2.052307 4.476571 0.098160
v -2.091640 4.516570 0.415155
v -1.953615 4.509089 0.401082
v -2.142018 4.477766 0.117160
v -1.936660 4.314383 0.309380
v -2.237934 4.375998 0.328969
v -2.090153 4.325252 0.120727
v -2.107131 4.353477 0.507217
v -1.938572 4.332028 0.462752
v -2.226011 4.358998 0.141514
v -2.052201 4.309153 0.301773
v -2.175523 4.178594 0.495206
v -2.282223 4.169799 0.386241
v -2.286994 4.148757 0.137390
v -2.179969 4.148013 0.120735
v -2.151249 4.165349 0.305042
v -2.185364 3.985963 0.545604
v -2.277153 3.968057 0.425165
v -2.278424 3.956686 0.173072
v -2.177282 3.965871 0.158110
v -2.154639 3.978459 0.348493
v -2.155652 3.772903 0.539578
v -2.214573 3.755713 0.461021
v -2.232748 3.752419 0.232733
v -2.155166 3.767285 0.208949
v -2.129395 3.773293 0.380770
v -1.985124 4.154845 0.566763
v -1.971506 4.134417 0.497124
v -2.079864 4.147426 0.493670
v -2.075087 4.167325 0.598350
v -2.032702 4.002772 0.622037
v -2.023540 3.981800 0.587797
v -2.085953 3.988619 0.579320
v -2.084088 4.011752 0.632691
v -0.939931 6.729466 -0.168691
v -1.175070 7.311525 -0.181354
v -1.057883 7.033898 -0.521418
v -1.057883 7.018074 0.119147
v -1.244108 6.012969 -0.188280
v -1.592599 6.187012 -0.196826
v -1.426756 6.106024 -0.426336
v -1.420386 6.098719 0.005983
v -1.339961 5.806897 -0.140730
v -1.707648 5.991489 -0.166636
v -1.529780 5.876113 -0.403669
v -1.522948 5.922901 0.058242
v -1.865146 4.734756 0.239612
v -2.115488 4.813931 0.205442
v -1.992030 4.725632 0.044879
v -1.991914 4.817854 0.372713
v -1.897348 4.633152 0.244152
v -2.144772 4.675267 0.234140
v -2.016881 4.625896 0.070350
v -2.018525 4.674604 0.390915
v -1.912428 4.497373 0.270977
v -2.194047 4.499444 0.270519
v -2.052307 4.476571 0.098160
v -2.091640 4.516570 0.415155
v -1.953615 4.509089 0.401082
v -2.142018 4.477766 0.117160
v -1.936660 4.314383 0.309380
v -2.237934 4.375998 0.328969
v -2.090153 4.325252 0.120727
v -2.107131 4.353477 0.507217
v -1.938572 4.332028 0.462752
v -2.226011 4.358998 0.141514
v -2.052201 4.309153 0.301773
v -2.175523 4.178594 0.495206
v -2.282223 4.169799 0.386241
v -2.286994 4.148757 0.137390
v -2.179969 4.148013 0.120735
v -2.151249 4.165349 0.305042
v -2.185364 3.985963 0.545604
v -2.277153 3.968057 0.425165
v -2.278424 3.956686 0.173072
v -2.177282 3.965871 0.158110
v -2.154639 3.978459 0.348493
v -2.155652 3.772903 0.539578
v -2.214573 3.755713 0.461021
v -2.232748 3.752419 0.232733
v -2.155166 3.767285 0.208949
v -2.129395 3.773293 0.380770
v -1.985124 4.154845 0.566763
v -1.971506 4.134417 0.497124
v -2.079864 4.147426 0.493670
v -2.075087 4.167325 0.598350
v -2.032702 4.002772 0.622037
v -2.023540 3.981800 0.587797
v -2.085953 3.988619 0.579320
v -2.084088 4.011752 0.632691
vn -0.7796 0.2769 -0.5617
vn -0.7796 0.2769 -0.5618
vn 0.6717 -0.3277 0.6644
vn 0.4323 -0.2159 0.8755
vn -0.0683 0.6375 0.7674
vn 0.6828 -0.1691 0.7107
vn 0.6829 -0.1691 0.7107
vn 0.6662 -0.4047 -0.6264
vn 0.6662 -0.4048 -0.6264
vn 0.6938 -0.6526 -0.3046
vn 0.7344 -0.3279 -0.5943
vn -0.5567 0.2637 -0.7878
vn -0.7476 0.2465 0.6168
vn -0.4822 0.1689 0.8596
vn 0.3030 0.4285 0.8512
vn -0.7774 0.0702 -0.6251
vn -0.6704 0.4377 0.5992
vn -0.5763 0.4840 0.6585
vn -0.5763 0.4839 0.6585
vn -0.7108 0.2844 -0.6433
vn -0.7824 0.0363 -0.6218
vn -0.7824 0.0364 -0.6217
vn -0.7824 0.0366 -0.6217
vn -0.7680 0.2503 0.5895
vn -0.7680 0.2503 0.5896
vn 0.6792 -0.5016 -0.5358
vn 0.6995 -0.0933 0.7085
vn 0.1064 0.1025 0.9890
vn 0.7851 -0.2479 -0.5676
vn 0.7852 -0.2478 -0.5675
vn 0.7851 -0.2479 -0.5675
vn 0.7982 -0.3037 -0.5202
vn 0.7194 -0.1091 0.6859
vn 0.9888 0.0161 0.1487
vn 0.7550 -0.2506 -0.6060
vn 0.7550 -0.2507 -0.6059
vn -0.7486 0.3739 0.5475
vn -0.7483 0.3742 0.5477
vn -0.2071 -0.1314 -0.9695
vn 0.8615 0.1998 0.4668
vn -0.8004 0.2972 -0.5207
vn -0.8004 0.2972 -0.5206
vn 0.8510 -0.5022 -0.1536
vn -0.8922 0.3984 -0.2126
vn 0.2082 0.4026 0.8914
vn -0.7281 0.4309 0.5331
vn -0.1860 -0.0861 -0.9788
vn -0.7309 0.2894 0.6181
vn -0.7308 0.2895 0.6181
vn -0.7308 0.2895 0.6182
vn 0.0515 -0.9937 -0.0992
vn 0.9906 -0.0310 -0.1335
vn 0.9906 -0.0309 -0.1336
vn 0.9906 -0.0311 -0.1333
vn -0.9994 -0.0321 0.0143
vn -0.9994 -0.0314 0.0135
vn -0.9994 -0.0320 0.0141
vn -0.1429 0.0661 -0.9875
vn -0.1428 0.0661 -0.9875
vn 0.8571 -0.4568 0.2381
vn 0.8571 -0.4569 0.2381
vn -0.9699 0.2405 -0.0369
vn 0.9784 0.1386 0.1534
vn 0.9784 0.1383 0.1538
vn 0.9784 0.1382 0.1539
vn -0.7800 -0.1262 0.6129
vn -0.7799 -0.1263 0.6130
vn -0.7798 -0.1263 0.6131
vn -0.1396 -0.1938 -0.9711
vn -0.1397 -0.1938 -0.9710
vn -0.7560 0.1533 0.6363
vn 0.9901 0.0004 0.1404
vn 0.9901 0.0003 0.1406
vn 0.1962 -0.9806 0.0013
vn 0.1963 -0.9805 0.0012
vn 0.2348 -0.9714 0.0364
vn -0.9694 -0.2412 0.0466
vn 0.9868 0.0877 -0.1363
vn 0.9867 0.0877 -0.1365
vn 0.9868 0.0877 -0.1364
vn -0.1660 -0.2867 -0.9435
vn -0.1659 -0.2867 -0.9435
vn 0.9445 -0.1760 0.2773
vn 0.3061 0.4409 0.8437
vn 0.9846 -0.1478 0.0938
vn -0.9835 -0.1214 -0.1339
vn -0.9835 -0.1213 -0.1339
vn -0.1153 -0.8911 0.4390
vn -0.9980 0.0579 0.0262
vn 0.0035 -0.4932 -0.8699
vn 0.3093 0.2131 0.9268
vn 0.0072 -0.7438 -0.6683
vn -0.0000 -0.0000 1.0000
vn -0.1381 0.9903 -0.0140
vn 0.7625 0.0113 -0.6469
vn -0.0000 -0.0000 -1.0000
vn -0.1218 0.9895 -0.0774
vn -0.7393 0.1806 0.6487
vn -0.2817 0.9561 0.0802
vn 0.8628 0.2517 0.4384
vn 0.8815 0.1719 -0.4397
vn 0.9932 0.0902 0.0731
vn 0.0506 0.9906 -0.1274
vn 0.9122 0.1882 0.3640
vn 0.7233 0.1311 -0.6780
vn 0.9717 0.1862 -0.1457
vn 0.7392 0.1723 0.6511
vn -0.2161 0.9665 0.1384
vn -0.1098 0.9862 -0.1243
vn 0.2945 0.9411 0.1662
vn -0.3530 0.8082 -0.4713
vn 0.3122 0.9156 -0.2533
vn -0.4527 0.6792 0.5777
vn -0.1653 0.9607 0.2229
vn -0.9767 0.1355 -0.1666
vn 0.2457 0.9351 -0.2553
vn 0.1752 0.9048 -0.3882
vn 0.1532 0.8952 0.4184
vn 0.1802 0.7506 0.6357
vn 0.0672 0.8336 -0.5483
vn -0.9918 0.1084 0.0671
vn -0.9801 0.1713 0.1006
vn 0.0372 0.9689 0.2446
vn 0.4274 0.1727 0.8874
vn 0.0574 0.9925 -0.1082
vn -0.9927 0.1192 0.0158
vn 0.3691 0.9282 0.0475
vn -0.8104 0.3957 0.4320
vn 0.3481 0.9374 0.0064
vn -0.3546 0.8402 -0.4104
vn 0.3663 0.9288 -0.0570
vn -0.8316 0.4046 -0.3806
vn 0.3907 0.9204 0.0126
vn 0.6597 0.2667 0.7026
vn 0.4129 0.1669 0.8954
vn 0.4999 0.8569 0.1253
vn -0.7870 0.4989 -0.3630
vn 0.4195 0.9019 -0.1029
vn -0.8427 0.3073 -0.4420
vn 0.4085 0.9116 -0.0448
vn -0.8099 0.4127 0.4168
vn -0.8181 0.4195 0.3935
vn 0.3673 0.9139 0.1727
vn -0.7470 0.5343 0.3956
vn 0.3238 0.9350 -0.1446
vn -0.7658 0.4968 -0.4082
vn 0.8924 0.0283 0.4503
vn 0.3875 0.9130 -0.1278
vn -0.8538 0.3171 -0.4129
vn 0.5061 0.8600 0.0661
vn 0.2400 0.9632 0.1212
vn -0.8452 0.3263 0.4232
vn 0.2056 0.9735 -0.0997
vn -0.9020 0.0048 0.4317
vn 0.1823 0.9813 -0.0621
vn 0.4347 0.8874 0.1536
vn 0.8772 0.0630 -0.4760
vn -0.7826 0.5131 -0.3526
vn 0.4189 0.9054 0.0691
vn -0.9972 0.0541 -0.0507
vn -0.3649 0.9306 -0.0286
vn 0.1099 0.9892 0.0968
vn 0.8939 0.1329 -0.4282
vn 0.2299 0.9691 -0.0895
vn 0.8836 0.0536 0.4651
vn 0.3021 0.9530 0.0213
vn -0.8613 0.2947 -0.4138
vn -0.0834 0.9825 0.1662
vn -0.0804 0.7423 -0.6652
vn 0.1306 0.9861 -0.1024
vn -0.7792 0.2217 0.5862
vn -0.9011 0.0638 -0.4289
vn 0.2420 0.9676 -0.0718
vn 0.2686 0.9582 0.0982
vn 0.8775 0.1468 0.4565
vn -0.9945 0.0132 0.1042
vn 0.6408 0.7586 -0.1182
vn -0.7570 0.3154 0.5723
vn 0.5673 0.8235 0.0094
vn 0.6574 0.3968 -0.6407
vn 0.4520 0.8920 -0.0000
vn -0.7195 0.3055 0.6237
vn 0.5755 0.8136 0.0828
vn -0.4278 0.6100 0.6670
vn 0.3276 0.9216 -0.2083
vn 0.0915 0.9631 0.2532
vn -0.9839 0.1252 -0.1276
vn -0.8807 0.1517 0.4488
vn -0.9679 0.2404 0.0736
vn 0.2082 0.9691 0.1322
vn 0.9191 0.0758 0.3867
vn 0.3640 0.9308 0.0319
vn 0.9984 0.0451 -0.0328
vn 0.0181 0.9933 0.1140
vn 0.6584 0.3660 -0.6577
vn -0.0147 0.9948 -0.1010
vn -0.0443 0.9948 0.0916
vn 0.0803 0.7185 0.6909
vn -0.0250 0.9952 -0.0951
vn 0.1630 0.7188 -0.6759
vn -0.9970 0.0069 0.0771
vn 0.2786 0.9604 0.0094
vn -0.6639 0.3623 -0.6543
vn -0.6334 0.5111 0.5810
vn -0.7475 0.2465 0.6168
vn -0.7824 0.0361 -0.6218
vn 0.6996 -0.0933 0.7085
vn -0.8922 0.3984 -0.2127
vn -0.9994 -0.0319 0.0141
vn -0.7802 -0.1261 0.6127
vn 0.9901 0.0002 0.1406
vn -0.1381 0.9903 0.0140
vn 0.7625 0.0113 0.6469
vn -0.1217 0.9895 0.0774
vn -0.7393 0.1806 -0.6487
vn -0.2818 0.9561 -0.0802
vn 0.8628 0.2517 -0.4384
vn 0.8815 0.1720 0.4397
vn 0.9932 0.0902 -0.0731
vn 0.0507 0.9906 0.1274
vn 0.9122 0.1883 -0.3640
vn 0.7233 0.1311 0.6780
vn 0.9717 0.1861 0.1457
vn 0.7392 0.1723 -0.6511
vn -0.2161 0.9665 -0.1384
vn -0.1098 0.9862 0.1243
vn 0.2944 0.9411 -0.1662
vn -0.3531 0.8082 0.4713
vn 0.3122 0.9156 0.2533
vn -0.4527 0.6792 -0.5777
vn -0.1654 0.9607 -0.2229
vn -0.9767 0.1355 0.1666
vn 0.2457 0.9351 0.2553
vn 0.1752 0.9048 0.3882
vn 0.1531 0.8953 -0.4184
vn 0.1802 0.7506 -0.6357
vn 0.0672 0.8336 0.5483
vn -0.9918 0.1084 -0.0671
vn -0.9801 0.1713 -0.1006
vn 0.0371 0.9689 -0.2446
vn 0.0575 0.9925 0.1082
vn -0.9927 0.1192 -0.0158
vn 0.3690 0.9282 -0.0475
vn -0.8104 0.3958 -0.4320
vn 0.3481 0.9374 -0.0064
vn -0.3546 0.8401 0.4104
vn 0.3662 0.9288 0.0570
vn -0.8316 0.4045 0.3806
vn 0.3908 0.9204 -0.0126
vn 0.5153 0.8250 -0.2318
vn 0.4999 0.8570 -0.1253
vn -0.7870 0.4989 0.3630
vn 0.4196 0.9019 0.1029
vn -0.8427 0.3073 0.4420
vn 0.4086 0.9116 0.0448
vn -0.8099 0.4126 -0.4168
vn -0.8181 0.4194 -0.3935
vn 0.3672 0.9140 -0.1727
vn -0.7470 0.5343 -0.3956
vn 0.3239 0.9350 0.1446
vn -0.7659 0.4968 0.4082
vn 0.8924 0.0283 -0.4503
vn 0.3875 0.9130 0.1278
vn -0.8538 0.3171 0.4129
vn 0.5060 0.8600 -0.0661
vn 0.2400 0.9632 -0.1212
vn -0.8452 0.3263 -0.4232
vn 0.2056 0.9735 0.0997
vn -0.9020 0.0047 -0.4317
vn 0.1823 0.9813 0.0621
vn 0.4347 0.8874 -0.1536
vn 0.8772 0.0631 0.4760
vn -0.7826 0.5130 0.3526
vn 0.4189 0.9054 -0.0691
vn -0.9972 0.0541 0.0507
vn -0.3649 0.9306 0.0286
vn 0.1099 0.9892 -0.0968
vn 0.8939 0.1329 0.4282
vn 0.2300 0.9691 0.0895
vn 0.8836 0.0536 -0.4651
vn 0.3021 0.9531 -0.0213
vn -0.8614 0.2946 0.4138
vn -0.0835 0.9825 -0.1662
vn -0.0804 0.7423 0.6652
vn 0.1306 0.9861 0.1024
vn -0.7792 0.2217 -0.5862
vn -0.9011 0.0639 0.4289
vn 0.2421 0.9676 0.0718
vn 0.2686 0.9582 -0.0982
vn 0.8775 0.1467 -0.4565
vn -0.9945 0.0133 -0.1042
vn 0.6408 0.7585 0.1182
vn -0.7570 0.3154 -0.5723
vn 0.5672 0.8235 -0.0094
vn 0.6573 0.3968 0.6407
vn 0.4521 0.8920 -0.0000
vn -0.7196 0.3053 -0.6237
vn 0.5754 0.8137 -0.0828
vn -0.4278 0.6100 -0.6670
vn 0.3277 0.9215 0.2083
vn 0.0915 0.9631 -0.2532
vn -0.9839 0.1252 0.1276
vn -0.8807 0.1516 -0.4488
vn -0.9679 0.2405 -0.0736
vn 0.2082 0.9691 -0.1322
vn 0.9191 0.0757 -0.3867
vn 0.3641 0.9308 -0.0319
vn 0.9984 0.0452 0.0328
vn 0.0180 0.9933 -0.1140
vn 0.6584 0.3660 0.6577
vn -0.0146 0.9948 0.1010
vn -0.0444 0.9948 -0.0916
vn 0.0803 0.7185 -0.6909
vn -0.0250 0.9952 0.0951
vn 0.1630 0.7188 0.6759
vn -0.9970 0.0070 -0.0771
vn 0.2786 0.9604 -0.0094
vn -0.6639 0.3622 0.6543
vn -0.6334 0.5111 -0.5810
vt 0.500000 1.000000
vt 0.250000 0.010000
vt 0.457846 0.130000
vt 0.666667 1.000000
vt 0.333333 1.000000
vt 0.042154 0.130000
vt 0.500000 1.000000
vt 0.250000 0.010000
vt 0.457846 0.130000
vt 0.666667 1.000000
vt 0.333333 1.000000
vt 0.042154 0.130000
vt 0.500000 1.000000
vt 0.250000 0.010000
vt 0.666667 1.000000
vt 0.457846 0.130000
vt 0.333333 1.000000
vt 0.042154 0.130000
vt 0.500000 1.000000
vt 0.250000 0.010000
vt 0.457846 0.130000
vt 0.666667 1.000000
vt 0.333333 1.000000
vt 0.042154 0.130000
vt 0.500000 1.000000
vt 0.250000 0.010000
vt 0.666667 1.000000
vt 0.457846 0.130000
vt 0.042154 0.130000
vt 0.333333 1.000000
vt 0.500000 1.000000
vt 0.250000 0.010000
vt 0.438683 0.118936
vt 0.666667 1.000000
vt 0.349338 1.000000
vt 0.042154 0.130000
vt 0.365343 1.000000
vt 0.419521 0.107873
vt 0.500000 1.000000
vt 0.250000 0.010000
vt 0.438683 0.118936
vt 0.666667 1.000000
vt 0.651301 1.000000
vt 0.042154 0.130000
vt 0.349338 1.000000
vt 0.365343 1.000000
vt 0.419521 0.107873
vt 0.500000 1.000000
vt 0.349338 1.000000
vt 0.042154 0.130000
vt 0.250000 0.010000
vt 0.419521 0.107873
vt 0.438683 0.118936
vt 0.651301 1.000000
vt 0.500000 1.000000
vt 0.042154 0.130000
vt 0.349338 1.000000
vt 0.250000 0.010000
vt 0.419521 0.107873
vt 0.438683 0.118936
vt 0.651301 1.000000
vt 0.500000 1.000000
vt 0.349338 1.000000
vt 0.042154 0.130000
vt 0.250000 0.010000
vt 0.500000 1.000000
vt 0.635934 1.000000
vt 0.419521 0.107873
vt 0.438683 0.118936
vt 0.651301 1.000000
vt 0.500000 1.000000
vt 0.365343 1.000000
vt 0.500000 1.000000
vt 0.500000 1.000000
vt 0.349338 1.000000
vt 0.365343 1.000000
vt 0.500000 1.000000
vt 0.500000 1.000000
vt 0.349338 1.000000
vt 0.500000 1.000000
vt 0.250000 0.010000
vt 0.666667 1.000000
vt 0.457846 0.130000
vt 0.042154 0.130000
vt 0.333333 1.000000
vt 0.500000 1.000000
vt 0.250000 0.010000
vt 0.457846 0.130000
vt 0.666667 1.000000
vt 0.333333 1.000000
vt 0.042154 0.130000
vt 0.500000 1.000000
vt 0.250000 0.010000
vt 0.666667 1.000000
vt 0.457846 0.130000
vt 0.333333 1.000000
vt 0.042154 0.130000
vt 0.500000 1.000000
vt 0.250000 0.010000
vt 0.457846 0.130000
vt 0.666667 1.000000
vt 0.042154 0.130000
vt 0.333333 1.000000
vt 0.500000 1.000000
vt 0.250000 0.010000
vt 0.666667 1.000000
vt 0.457846 0.130000
vt 0.042154 0.130000
vt 0.333333 1.000000
vt 0.500000 1.000000
vt 0.250000 0.010000
vt 0.666667 1.000000
vt 0.438683 0.118936
vt 0.042154 0.130000
vt 0.349338 1.000000
vt 0.365343 1.000000
vt 0.419521 0.107873
vt 0.500000 1.000000
vt 0.250000 0.010000
vt 0.666667 1.000000
vt 0.651301 1.000000
vt 0.438683 0.118936
vt 0.042154 0.130000
vt 0.349338 1.000000
vt 0.365343 1.000000
vt 0.419521 0.107873
vt 0.500000 1.000000
vt 0.042154 0.130000
vt 0.349338 1.000000
vt 0.250000 0.010000
vt 0.419521 0.107873
vt 0.651301 1.000000
vt 0.438683 0.118936
vt 0.500000 1.000000
vt 0.349338 1.000000
vt 0.042154 0.130000
vt 0.250000 0.010000
vt 0.419521 0.107873
vt 0.438683 0.118936
vt 0.651301 1.000000
vt 0.500000 1.000000
vt 0.349338 1.000000
vt 0.042154 0.130000
vt 0.250000 0.010000
vt 0.500000 1.000000
vt 0.635934 1.000000
vt 0.419521 0.107873
vt 0.651301 1.000000
vt 0.500000 1.000000
vt 0.365343 1.000000
vt 0.500000 1.000000
vt 0.500000 1.000000
vt 0.349338 1.000000
vt 0.365343 1.000000
vt 0.500000 1.000000
vt 0.500000 1.000000
vt 0.349338 1.000000
s 1
usemtl Skin.001
f 3/3/1 6/8/1 2/2/2
f 8/11/3 1/1/4 4/5/5
f 8/11/6 9/13/7 5/7/7
f 5/7/8 11/15/8 7/10/9
f 1/1/10 7/10/11 3/4/12
f 6/8/13 4/6/14 2/2/15
f 15/21/16 10/14/16 11/16/16
f 14/20/17 12/18/17 10/14/17
f 10/14/18 8/12/19 6/8/18
f 11/16/20 6/8/20 7/9/20
f 15/21/21 18/26/22 14/20/23
f 18/26/24 16/24/25 14/20/24
f 9/13/26 15/22/26 11/15/26
f 12/17/27 13/19/27 9/13/27
f 20/30/28 24/35/28 25/37/28
f 21/31/29 19/27/30 17/25/31
f 17/25/32 15/22/32 13/19/32
f 20/30/33 13/19/33 16/23/33
f 25/37/34 27/39/34 21/31/34
f 21/31/35 29/42/36 23/34/36
f 18/26/37 24/36/38 20/29/37
f 19/28/39 23/33/39 26/38/39
f 25/37/40 17/25/40 20/30/40
f 26/38/41 18/26/42 19/28/42
f 38/55/43 29/43/43 33/48/43
f 32/47/44 22/32/44 26/38/44
f 30/45/45 25/37/45 24/35/45
f 28/40/46 24/36/46 22/32/46
f 29/41/47 26/38/47 23/33/47
f 28/40/48 34/50/49 30/44/50
f 27/39/51 33/48/51 29/43/51
f 38/55/52 42/61/53 37/54/54
f 41/59/55 35/51/56 36/52/57
f 37/53/58 32/47/59 29/41/59
f 34/49/60 33/48/60 30/45/61
f 36/52/62 28/40/62 32/47/62
f 39/57/63 48/71/64 43/62/65
f 45/65/66 39/56/67 40/58/68
f 42/60/69 36/52/70 37/53/69
f 40/58/71 34/50/71 35/51/71
f 34/49/72 43/62/72 38/55/73
f 48/71/74 46/67/75 47/70/75
f 44/63/76 45/66/76 48/71/76
f 46/68/77 40/58/77 41/59/77
f 43/62/78 47/70/79 42/61/80
f 47/69/81 41/59/81 42/60/82
f 49/72/83 54/77/83 50/73/83
f 30/45/84 49/72/84 31/46/84
f 31/46/85 50/73/85 27/39/85
f 51/74/86 30/45/87 33/48/87
f 55/78/88 53/76/88 56/79/88
f 55/78/89 52/75/89 51/74/89
f 54/77/90 51/74/90 50/73/90
f 52/75/91 53/76/91 49/72/91
f 50/73/92 33/48/92 27/39/92
f 44/63/93 95/135/93 39/57/94
f 48/71/93 100/142/93 44/63/95
f 43/62/93 104/149/96 48/71/97
f 39/57/93 99/141/93 43/62/98
f 45/65/93 96/137/96 40/58/99
f 44/64/93 101/144/93 45/65/100
f 40/58/93 95/136/93 39/56/101
f 41/59/93 98/139/93 42/60/102
f 34/50/93 95/136/96 39/56/103
f 45/66/93 104/149/93 48/71/104
f 46/67/93 101/145/96 45/66/105
f 47/70/93 102/146/93 46/67/106
f 48/71/93 103/148/93 47/70/107
f 46/68/93 97/138/96 41/59/108
f 42/61/93 103/148/96 47/70/109
f 53/76/93 105/150/96 49/72/110
f 54/77/93 109/154/93 53/76/111
f 50/73/93 110/155/96 54/77/112
f 49/72/93 106/151/93 50/73/113
f 52/75/93 86/124/93 30/45/114
f 49/72/93 108/153/93 52/75/115
f 31/46/93 105/150/96 49/72/116
f 27/39/93 106/151/96 50/73/117
f 51/74/93 89/127/93 33/48/118
f 52/75/93 107/152/93 51/74/119
f 55/78/93 112/157/93 56/79/120
f 54/77/93 111/156/93 55/78/121
f 56/79/93 109/154/93 53/76/122
f 55/78/93 107/152/96 51/74/123
f 1/1/4 60/85/124 4/5/5
f 52/75/93 112/157/96 56/79/125
f 50/73/93 107/152/93 51/74/126
f 7/9/93 59/83/93 3/3/127
f 6/8/93 63/88/93 7/9/128
f 2/2/93 62/87/96 6/8/129
f 3/3/93 58/81/93 2/2/130
f 8/11/93 60/85/93 4/5/131
f 5/7/93 64/90/96 8/11/132
f 1/1/93 61/86/96 5/7/133
f 4/6/14 58/81/134 2/2/15
f 3/4/12 57/80/135 1/1/10
f 12/17/93 64/90/93 8/11/136
f 9/13/93 68/96/93 12/17/137
f 5/7/93 65/92/96 9/13/138
f 11/15/93 65/92/96 9/13/139
f 7/10/93 67/94/96 11/15/140
f 5/7/93 63/89/93 7/10/141
f 8/12/93 62/87/93 6/8/142
f 15/21/93 67/95/96 11/16/143
f 14/20/93 71/100/93 15/21/144
f 10/14/93 70/99/96 14/20/145
f 11/16/93 66/93/96 10/14/146
f 16/24/93 70/99/93 14/20/147
f 12/18/93 72/102/96 16/24/148
f 10/14/93 68/97/96 12/18/149
f 10/14/93 62/87/96 6/8/150
f 19/28/93 71/100/93 15/21/151
f 18/26/93 75/107/96 19/28/152
f 14/20/93 74/105/96 18/26/153
f 20/29/93 74/105/93 18/26/154
f 16/24/93 76/108/96 20/29/155
f 13/19/93 65/92/93 9/13/156
f 15/22/93 69/98/93 13/19/157
f 13/19/93 72/103/96 16/23/158
f 24/35/93 76/109/96 20/30/159
f 25/37/93 80/115/96 24/35/160
f 20/30/93 81/116/96 25/37/161
f 21/31/93 73/104/93 17/25/162
f 23/34/93 77/110/93 21/31/163
f 19/27/93 79/112/96 23/34/164
f 17/25/93 75/106/93 19/27/165
f 17/25/93 69/98/93 13/19/166
f 17/25/93 76/109/96 20/30/167
f 31/46/93 81/116/93 25/37/168
f 27/39/93 87/125/96 31/46/169
f 21/31/93 83/118/96 27/39/170
f 25/37/93 77/110/93 21/31/171
f 29/42/93 83/118/96 27/39/172
f 23/34/93 85/120/96 29/42/173
f 22/32/93 74/105/96 18/26/174
f 24/36/96 78/111/93 22/32/175
f 26/38/93 79/113/96 23/33/176
f 19/28/93 82/117/96 26/38/177
f 22/32/93 82/117/96 26/38/178
f 38/55/96 89/127/96 33/48/179
f 37/54/93 94/134/96 38/55/180
f 29/43/93 93/132/96 37/54/181
f 33/48/93 85/121/96 29/43/182
f 32/47/96 82/117/96 26/38/183
f 28/40/93 88/126/96 32/47/184
f 22/32/93 84/119/96 28/40/185
f 30/45/93 80/115/96 24/35/186
f 31/46/96 86/124/96 30/45/187
f 30/44/93 84/119/96 28/40/188
f 32/47/93 85/122/96 29/41/189
f 35/51/93 84/119/96 28/40/190
f 34/50/93 91/130/96 35/51/191
f 30/44/93 90/128/96 34/50/192
f 33/48/93 83/118/96 27/39/193
f 43/62/93 94/134/96 38/55/194
f 42/61/93 99/141/96 43/62/195
f 37/54/93 98/140/96 42/61/196
f 41/59/93 92/131/96 36/52/197
f 40/58/93 97/138/96 41/59/198
f 35/51/93 96/137/96 40/58/199
f 36/52/93 91/130/96 35/51/200
f 36/52/93 93/133/96 37/53/201
f 32/47/93 92/131/96 36/52/202
f 38/55/93 90/129/96 34/49/203
f 30/45/93 89/127/96 33/48/204
f 3/3/1 7/9/1 6/8/1
f 8/11/3 5/7/3 1/1/4
f 8/11/6 12/17/7 9/13/7
f 5/7/8 9/13/9 11/15/8
f 1/1/10 5/7/11 7/10/11
f 6/8/13 8/12/205 4/6/14
f 15/21/16 14/20/16 10/14/16
f 14/20/17 16/24/17 12/18/17
f 10/14/18 12/18/19 8/12/19
f 11/16/20 10/14/20 6/8/20
f 15/21/21 19/28/206 18/26/22
f 18/26/24 20/29/24 16/24/25
f 9/13/26 13/19/26 15/22/26
f 12/17/27 16/23/207 13/19/27
f 21/31/29 23/34/30 19/27/30
f 17/25/32 19/27/32 15/22/32
f 20/30/33 17/25/33 13/19/33
f 25/37/34 31/46/34 27/39/34
f 21/31/35 27/39/36 29/42/36
f 18/26/37 22/32/37 24/36/38
f 25/37/40 21/31/40 17/25/40
f 26/38/41 22/32/42 18/26/42
f 38/55/43 37/54/43 29/43/43
f 32/47/44 28/40/208 22/32/44
f 30/45/45 31/46/45 25/37/45
f 28/40/46 30/44/46 24/36/46
f 29/41/47 32/47/47 26/38/47
f 28/40/48 35/51/49 34/50/49
f 38/55/52 43/62/54 42/61/53
f 41/59/55 40/58/209 35/51/56
f 37/53/58 36/52/59 32/47/59
f 34/49/60 38/55/61 33/48/60
f 36/52/62 35/51/62 28/40/62
f 39/57/63 44/63/65 48/71/64
f 45/65/66 44/64/210 39/56/67
f 42/60/69 41/59/69 36/52/70
f 40/58/71 39/56/71 34/50/71
f 34/49/72 39/57/211 43/62/72
f 48/71/74 45/66/75 46/67/75
f 46/68/77 45/65/77 40/58/77
f 43/62/78 48/71/80 47/70/79
f 47/69/81 46/68/81 41/59/81
f 49/72/83 53/76/83 54/77/83
f 30/45/84 52/75/84 49/72/84
f 31/46/85 49/72/85 50/73/85
f 51/74/86 52/75/87 30/45/87
f 55/78/88 54/77/88 53/76/88
f 55/78/89 56/79/89 52/75/89
f 54/77/90 55/78/90 51/74/90
f 52/75/91 56/79/91 53/76/91
f 50/73/92 51/74/92 33/48/92
f 44/63/93 100/142/212 95/135/93
f 48/71/93 104/149/213 100/142/93
f 43/62/93 99/141/214 104/149/96
f 39/57/93 95/135/215 99/141/93
f 45/65/93 101/144/216 96/137/96
f 44/64/93 100/143/217 101/144/93
f 40/58/93 96/137/218 95/136/93
f 41/59/93 97/138/219 98/139/93
f 34/50/93 90/128/220 95/136/96
f 45/66/93 101/145/221 104/149/93
f 46/67/93 102/146/222 101/145/96
f 47/70/93 103/148/223 102/146/93
f 48/71/93 104/149/224 103/148/93
f 46/68/93 102/147/225 97/138/96
f 42/61/93 98/140/226 103/148/96
f 53/76/93 109/154/227 105/150/96
f 54/77/93 110/155/228 109/154/93
f 50/73/93 106/151/229 110/155/96
f 49/72/93 105/150/230 106/151/93
f 52/75/93 108/153/231 86/124/93
f 49/72/93 105/150/232 108/153/93
f 31/46/93 87/125/233 105/150/96
f 27/39/93 83/118/234 106/151/96
f 51/74/93 107/152/235 89/127/93
f 52/75/93 108/153/236 107/152/93
f 55/78/93 111/156/237 112/157/93
f 54/77/93 110/155/238 111/156/93
f 56/79/93 112/157/239 109/154/93
f 55/78/93 111/156/240 107/152/96
f 1/1/4 57/80/135 60/85/124
f 52/75/93 108/153/241 112/157/96
f 50/73/93 106/151/242 107/152/93
f 7/9/93 63/88/243 59/83/93
f 6/8/93 62/87/244 63/88/93
f 2/2/93 58/81/245 62/87/96
f 3/3/93 59/83/246 58/81/93
f 8/11/93 64/90/247 60/85/93
f 5/7/93 61/86/248 64/90/96
f 1/1/93 57/80/249 61/86/96
f 4/6/14 60/84/124 58/81/134
f 3/4/12 59/82/250 57/80/135
f 12/17/93 68/96/251 64/90/93
f 9/13/93 65/92/252 68/96/93
f 5/7/93 61/86/253 65/92/96
f 11/15/93 67/94/254 65/92/96
f 7/10/93 63/89/255 67/94/96
f 5/7/93 61/86/256 63/89/93
f 8/12/93 64/91/257 62/87/93
f 15/21/93 71/100/258 67/95/96
f 14/20/93 70/99/259 71/100/93
f 10/14/93 66/93/260 70/99/96
f 11/16/93 67/95/261 66/93/96
f 16/24/93 72/102/262 70/99/93
f 12/18/93 68/97/263 72/102/96
f 10/14/93 66/93/264 68/97/96
f 10/14/93 66/93/265 62/87/96
f 19/28/93 75/107/266 71/100/93
f 18/26/93 74/105/267 75/107/96
f 14/20/93 70/99/268 74/105/96
f 20/29/93 76/108/269 74/105/93
f 16/24/93 72/102/270 76/108/96
f 13/19/93 69/98/271 65/92/93
f 15/22/93 71/101/272 69/98/93
f 13/19/93 69/98/273 72/103/96
f 24/35/93 80/115/274 76/109/96
f 25/37/93 81/116/275 80/115/96
f 20/30/93 76/109/276 81/116/96
f 21/31/93 77/110/277 73/104/93
f 23/34/93 79/112/278 77/110/93
f 19/27/93 75/106/279 79/112/96
f 17/25/93 73/104/280 75/106/93
f 17/25/93 73/104/281 69/98/93
f 17/25/93 73/104/282 76/109/96
f 31/46/93 87/125/283 81/116/93
f 27/39/93 83/118/284 87/125/96
f 21/31/93 77/110/285 83/118/96
f 25/37/93 81/116/286 77/110/93
f 29/42/93 85/120/287 83/118/96
f 23/34/93 79/112/288 85/120/96
f 22/32/93 78/111/289 74/105/96
f 24/36/96 80/114/290 78/111/93
f 26/38/93 82/117/291 79/113/96
f 19/28/93 75/107/292 82/117/96
f 22/32/93 78/111/293 82/117/96
f 38/55/96 94/134/294 89/127/96
f 37/54/93 93/132/295 94/134/96
f 29/43/93 85/121/296 93/132/96
f 33/48/93 89/127/297 85/121/96
f 32/47/96 88/126/298 82/117/96
f 28/40/93 84/119/299 88/126/96
f 22/32/93 78/111/300 84/119/96
f 30/45/93 86/124/301 80/115/96
f 31/46/96 87/125/302 86/124/96
f 30/44/93 86/123/303 84/119/96
f 32/47/93 88/126/304 85/122/96
f 35/51/93 91/130/305 84/119/96
f 34/50/93 90/128/306 91/130/96
f 30/44/93 86/123/307 90/128/96
f 33/48/93 89/127/308 83/118/96
f 43/62/93 99/141/309 94/134/96
f 42/61/93 98/140/310 99/141/96
f 37/54/93 93/132/311 98/140/96
f 41/59/93 97/138/312 92/131/96
f 40/58/93 96/137/313 97/138/96
f 35/51/93 91/130/314 96/137/96
f 36/52/93 92/131/315 91/130/96
f 36/52/93 92/131/316 93/133/96
f 32/47/93 88/126/317 92/131/96
f 38/55/93 94/134/318 90/129/96
f 30/45/93 86/124/319 89/127/96
f 57/80/135 58/81/134 60/85/124
f 57/80/135 59/83/250 58/81/134
